<svg width="256" height="256" version="1.1" xmlns="http://www.w3.org/2000/svg" desc="Created with imagetracer.js version 1.2.5"><path fill="rgb(155,195,220)" stroke="rgb(155,195,220)" stroke-width="1" opacity="1" d="M 119.5 19 L 133 19.5 L 119.5 20 L 119.5 19 Z "></path><path fill="rgb(155,195,220)" stroke="rgb(155,195,220)" stroke-width="1" opacity="1" d="M 110.5 20 L 114 20.5 L 110.5 21 L 110.5 20 Z "></path><path fill="rgb(155,195,220)" stroke="rgb(155,195,220)" stroke-width="1" opacity="1" d="M 136.5 20 L 142 20.5 L 136.5 21 L 136.5 20 Z "></path><path fill="rgb(155,195,220)" stroke="rgb(155,195,220)" stroke-width="1" opacity="1" d="M 104.5 21 L 107 21.5 L 104.5 22 L 104.5 21 Z "></path><path fill="rgb(155,195,220)" stroke="rgb(155,195,220)" stroke-width="1" opacity="1" d="M 143.5 21 L 147 21.5 L 143.5 22 L 143.5 21 Z "></path><path fill="rgb(155,195,220)" stroke="rgb(155,195,220)" stroke-width="1" opacity="1" d="M 123.5 22 L 133 22.5 L 123.5 23 L 123.5 22 Z "></path><path fill="rgb(155,195,220)" stroke="rgb(155,195,220)" stroke-width="1" opacity="1" d="M 148.5 22 L 151 22.5 L 148.5 23 L 148.5 22 Z "></path><path fill="rgb(155,195,220)" stroke="rgb(155,195,220)" stroke-width="1" opacity="1" d="M 112.5 23 L 119 23.5 L 112.5 24 L 112.5 23 Z "></path><path fill="rgb(155,195,220)" stroke="rgb(155,195,220)" stroke-width="1" opacity="1" d="M 134.5 23 L 143.5 23 L 157.5 26 L 157.5 25 L 152 23.5 L 154.5 23 Q 174.7 28.8 188 41.5 L 186.5 42 L 166 32 Q 164.9 34.7 167.5 34 L 172.5 38 L 174.5 38 L 184 47.5 L 191 58.5 Q 191.5 65 195 68.5 L 197 79.5 L 197 81.5 L 198 85.5 L 197 88.5 L 198.5 91 L 193.5 90 L 191.5 90 L 180.5 90 L 179.5 91 L 178 86.5 L 179 84.5 L 179 82.5 L 177 68.5 L 172 58 Q 169.3 59.1 170 56.5 L 167 55 L 165.5 52 Q 157.5 45 143.5 44 L 141.5 44 L 139.5 45 L 135.5 44 L 119.5 48 L 109 55.5 L 108.5 57 Q 106.7 54.3 105 58.5 Q 105.8 60.8 103.5 60 Q 100.3 61.2 101 65 Q 98 63.8 99 67.5 L 94 78.5 L 94 80.5 Q 92.5 92 96 98.5 L 101 108.5 L 107.5 115 L 117.5 111 L 143.5 96 L 151.5 94 L 151.5 95 L 147 96.5 L 148 98.5 Q 145.8 105.3 140.5 109 L 130.5 113 L 123.5 113 L 118.5 111 Q 105.5 119.8 87 122 L 87 119.5 L 84 116.5 L 78 103.5 L 75 84.5 L 77 76.5 Q 74.5 75 78 73.5 L 83 60.5 L 89 52 Q 91.7 53.1 91 50.5 L 103.5 40 L 119.5 31 L 124.5 31 L 130.5 28 Q 140 29.5 145.5 27 L 156.5 29 L 156.5 28 L 141.5 24 L 134.5 24 L 134.5 23 Z "></path><path fill="rgb(155,195,220)" stroke="rgb(155,195,220)" stroke-width="1" opacity="1" d="M 107.5 24 L 111 24.5 L 107.5 25 L 107.5 24 Z "></path><path fill="rgb(155,195,220)" stroke="rgb(155,195,220)" stroke-width="1" opacity="1" d="M 102.5 25 L 106 25.5 L 102.5 26 L 102.5 25 Z "></path><path fill="rgb(155,195,220)" stroke="rgb(155,195,220)" stroke-width="1" opacity="1" d="M 95.5 27 L 98 27.5 L 90.5 30 L 90.5 29 L 95.5 27 Z "></path><path fill="rgb(155,195,220)" stroke="rgb(155,195,220)" stroke-width="1" opacity="1" d="M 87.5 30 L 89 30.5 L 74.5 38 L 75.5 36 L 87.5 30 Z "></path><path fill="rgb(155,195,220)" stroke="rgb(155,195,220)" stroke-width="1" opacity="1" d="M 66.5 38 L 65.5 40 L 66.5 38 Z "></path><path fill="rgb(155,195,220)" stroke="rgb(155,195,220)" stroke-width="1" opacity="1" d="M 72.5 38 L 71.5 40 L 72.5 38 Z "></path><path fill="rgb(155,195,220)" stroke="rgb(155,195,220)" stroke-width="1" opacity="1" d="M 69.5 40 L 68.5 42 L 69.5 40 Z "></path><path fill="rgb(155,195,220)" stroke="rgb(155,195,220)" stroke-width="1" opacity="1" d="M 62.5 41 L 60.5 44 L 62.5 41 Z "></path><path fill="rgb(155,195,220)" stroke="rgb(155,195,220)" stroke-width="1" opacity="1" d="M 66.5 42 L 64.5 45 L 66.5 42 Z "></path><path fill="rgb(155,195,220)" stroke="rgb(155,195,220)" stroke-width="1" opacity="1" d="M 62.5 45 L 56.5 52 L 53 54.5 L 43.5 66 L 45 63.5 L 56.5 50 L 62.5 45 Z "></path><path fill="rgb(155,195,220)" stroke="rgb(155,195,220)" stroke-width="1" opacity="1" d="M 48.5 55 L 47.5 57 L 48.5 55 Z "></path><path fill="rgb(155,195,220)" stroke="rgb(155,195,220)" stroke-width="1" opacity="1" d="M 45.5 59 L 44.5 61 L 45.5 59 Z "></path><path fill="rgb(155,195,220)" stroke="rgb(155,195,220)" stroke-width="1" opacity="1" d="M 42.5 67 L 41 69.5 L 30.5 90 L 30 88.5 Q 33.3 76.8 39.5 68 Q 41 70.5 42.5 67 Z "></path><path fill="rgb(155,195,220)" stroke="rgb(155,195,220)" stroke-width="1" opacity="1" d="M 169.5 90 L 178 90.5 L 169.5 91 L 169.5 90 Z "></path><path fill="rgb(155,195,220)" stroke="rgb(155,195,220)" stroke-width="1" opacity="1" d="M 162.5 91 L 167 91.5 L 162.5 92 L 162.5 91 Z "></path><path fill="rgb(155,195,220)" stroke="rgb(155,195,220)" stroke-width="1" opacity="1" d="M 157.5 92 L 161 92.5 L 157.5 93 L 157.5 92 Z "></path><path fill="rgb(155,195,220)" stroke="rgb(155,195,220)" stroke-width="1" opacity="1" d="M 153.5 93 L 156 93.5 L 153.5 94 L 153.5 93 Z "></path><path fill="rgb(188,217,235)" stroke="rgb(188,217,235)" stroke-width="1" opacity="1" d="M 114.5 20 L 135.5 20 L 151.5 23 L 160 26.5 L 158.5 27 L 143.5 23 L 123.5 22 L 122.5 23 L 112.5 23 L 102.5 25 L 87.5 30 Q 66.8 39.3 52 54.5 L 38.5 72 L 39 70.5 Q 46.5 54.5 59.5 44 Q 70.4 34.4 84.5 28 L 98.5 23 L 114.5 20 Z "></path><path fill="rgb(188,217,235)" stroke="rgb(188,217,235)" stroke-width="1" opacity="1" d="M 135.5 44 L 139.5 45 L 141.5 44 L 143.5 44 Q 158.9 45.1 167 53.5 Q 166.3 55.8 168.5 55 L 170 58 Q 172.7 56.9 172 59.5 L 177 68.5 L 179 82.5 L 179 84.5 L 178 88.5 L 178.5 90 L 162.5 91 L 143.5 96 L 117.5 111 L 107.5 115 L 101 108.5 L 96 98.5 Q 92.5 92 94 80.5 L 95 77.5 L 99 65 Q 102 66.3 101 62.5 L 105 60 L 107.5 56 L 109 56.5 L 112.5 52 Q 117.7 51.7 119.5 48 L 135.5 44 Z "></path><path fill="rgb(111,157,185)" stroke="rgb(111,157,185)" stroke-width="1" opacity="0.996078431372549" d="M 117.5 16 L 139 16.5 L 138.5 18 L 146.5 17 L 146.5 18 L 143 18.5 L 145.5 20 Q 146.8 17.8 148 20.5 L 145.5 21 L 138.5 19 L 114.5 19 L 99.5 22 L 80.5 30 Q 77.5 28.5 80.5 27 L 97.5 20 L 117.5 16 Z "></path><path fill="rgb(111,157,185)" stroke="rgb(111,157,185)" stroke-width="1" opacity="0.996078431372549" d="M 148.5 18 L 152 18.5 L 148.5 19 L 148.5 18 Z "></path><path fill="rgb(111,157,185)" stroke="rgb(111,157,185)" stroke-width="1" opacity="0.996078431372549" d="M 156.5 20 L 159 20.5 L 156.5 21 L 156.5 20 Z "></path><path fill="rgb(111,157,185)" stroke="rgb(111,157,185)" stroke-width="1" opacity="0.996078431372549" d="M 163.5 22 L 168 23.5 L 165.5 24 L 163.5 22 Z "></path><path fill="rgb(111,157,185)" stroke="rgb(111,157,185)" stroke-width="1" opacity="0.996078431372549" d="M 169.5 24 L 172 25.5 L 170.5 26 L 169.5 24 Z "></path><path fill="rgb(111,157,185)" stroke="rgb(111,157,185)" stroke-width="1" opacity="0.996078431372549" d="M 173.5 26 L 180 29.5 L 178.5 29 L 176.5 30 L 176.5 28 L 173.5 29 L 173.5 28 L 175 27.5 L 173.5 26 Z "></path><path fill="rgb(111,157,185)" stroke="rgb(111,157,185)" stroke-width="1" opacity="0.996078431372549" d="M 102.5 27 L 105 27.5 L 91 35 Q 92.1 37.7 89.5 37 L 81 45.5 L 81 47 Q 78.3 45.9 79 48.5 L 73 55.5 L 73 57.5 L 64 71.5 L 64 73.5 L 60 85.5 L 61 87.5 L 59 93.5 L 60 98.5 L 60 100.5 L 59 103.5 L 61 112.5 L 59 111.5 L 59 106.5 L 56 98.5 L 56 84.5 L 57 81.5 L 58 76.5 L 58 74.5 L 61 59.5 L 66 48 Q 69 49 68 46 Q 55.4 52 47 63.5 L 38.5 76 L 39 74.5 Q 46.7 60.2 58.5 50 Q 75.8 33.8 102.5 27 Z "></path><path fill="rgb(111,157,185)" stroke="rgb(111,157,185)" stroke-width="1" opacity="0.996078431372549" d="M 77.5 29 L 78.5 31 L 77.5 29 Z "></path><path fill="rgb(111,157,185)" stroke="rgb(111,157,185)" stroke-width="1" opacity="0.996078431372549" d="M 75.5 30 L 76.5 32 L 75.5 30 Z "></path><path fill="rgb(111,157,185)" stroke="rgb(111,157,185)" stroke-width="1" opacity="0.996078431372549" d="M 181.5 30 Q 199 39.6 211 54.5 L 226 78.5 L 224 77.5 L 222.5 75 L 221 82.5 L 222 85.5 L 221 88.5 L 221 90.5 L 220 93.5 L 222 94.5 L 217.5 95 L 212 94 Q 213.1 91.3 210.5 92 L 206.5 93 L 206.5 92 L 210 91.5 L 209 89.5 Q 211.7 87.8 210 81.5 Q 207.5 80 209 74.5 L 205 63.5 L 205 61.5 Q 205.6 55.4 202 53.5 L 190 39 L 188 39 Q 189.1 36.3 186.5 37 L 181 32.5 L 181.5 30 Z "></path><path fill="rgb(111,157,185)" stroke="rgb(111,157,185)" stroke-width="1" opacity="0.996078431372549" d="M 74.5 32 L 73.5 34 L 74.5 32 Z "></path><path fill="rgb(111,157,185)" stroke="rgb(111,157,185)" stroke-width="1" opacity="0.996078431372549" d="M 71.5 34 L 70.5 36 L 71.5 34 Z "></path><path fill="rgb(111,157,185)" stroke="rgb(111,157,185)" stroke-width="1" opacity="0.996078431372549" d="M 68.5 36 L 67.5 38 L 68.5 36 Z "></path><path fill="rgb(111,157,185)" stroke="rgb(111,157,185)" stroke-width="1" opacity="0.996078431372549" d="M 65.5 38 L 64.5 40 L 65.5 38 Z "></path><path fill="rgb(111,157,185)" stroke="rgb(111,157,185)" stroke-width="1" opacity="0.996078431372549" d="M 60.5 42 L 57.5 46 L 60.5 42 Z "></path><path fill="rgb(111,157,185)" stroke="rgb(111,157,185)" stroke-width="1" opacity="0.996078431372549" d="M 50.5 52 L 48.5 55 L 50.5 52 Z "></path><path fill="rgb(111,157,185)" stroke="rgb(111,157,185)" stroke-width="1" opacity="0.996078431372549" d="M 45.5 58 L 44.5 60 L 45.5 58 Z "></path><path fill="rgb(111,157,185)" stroke="rgb(111,157,185)" stroke-width="1" opacity="0.996078431372549" d="M 27.5 96 L 29 100.5 L 25.5 113 L 25 110.5 L 27.5 96 Z "></path><path fill="rgb(111,157,185)" stroke="rgb(111,157,185)" stroke-width="1" opacity="0.996078431372549" d="M 64.5 123 L 68 123.5 L 64.5 124 L 64.5 123 Z "></path><path fill="rgb(111,157,185)" stroke="rgb(111,157,185)" stroke-width="1" opacity="0.996078431372549" d="M 86.5 123 L 89 123.5 L 86.5 124 L 86.5 123 Z "></path><path fill="rgb(111,157,185)" stroke="rgb(111,157,185)" stroke-width="1" opacity="0.996078431372549" d="M 90.5 123 L 93 123.5 L 90.5 124 L 90.5 123 Z "></path><path fill="rgb(111,157,185)" stroke="rgb(111,157,185)" stroke-width="1" opacity="0.996078431372549" d="M 161.5 123 L 166 123.5 L 161.5 124 L 161.5 123 Z "></path><path fill="rgb(0,0,0)" stroke="rgb(0,0,0)" stroke-width="1" opacity="0.09803921568627451" d="M 105.5 14 L 108 14.5 L 105.5 15 L 105.5 14 Z "></path><path fill="rgb(0,0,0)" stroke="rgb(0,0,0)" stroke-width="1" opacity="0.09803921568627451" d="M 147.5 14 L 150 14.5 L 147.5 15 L 147.5 14 Z "></path><path fill="rgb(0,0,0)" stroke="rgb(0,0,0)" stroke-width="1" opacity="0.09803921568627451" d="M 101.5 15 L 104 15.5 L 101.5 16 L 101.5 15 Z "></path><path fill="rgb(0,0,0)" stroke="rgb(0,0,0)" stroke-width="1" opacity="0.09803921568627451" d="M 152.5 15 L 155 15.5 L 152.5 16 L 152.5 15 Z "></path><path fill="rgb(0,0,0)" stroke="rgb(0,0,0)" stroke-width="1" opacity="0.09803921568627451" d="M 177.5 24 L 182 26.5 L 180.5 26 Q 176.8 25.8 177.5 24 Z "></path><path fill="rgb(0,0,0)" stroke="rgb(0,0,0)" stroke-width="1" opacity="0.09803921568627451" d="M 71.5 27 L 70.5 29 L 71.5 27 Z "></path><path fill="rgb(0,0,0)" stroke="rgb(0,0,0)" stroke-width="1" opacity="0.09803921568627451" d="M 185.5 28 L 186.5 30 L 185.5 28 Z "></path><path fill="rgb(0,0,0)" stroke="rgb(0,0,0)" stroke-width="1" opacity="0.09803921568627451" d="M 58.5 36 L 57.5 38 L 58.5 36 Z "></path><path fill="rgb(0,0,0)" stroke="rgb(0,0,0)" stroke-width="1" opacity="0.09803921568627451" d="M 200.5 39 L 202.5 39 L 205 41.5 L 203.5 43 L 200.5 39 Z "></path><path fill="rgb(0,0,0)" stroke="rgb(0,0,0)" stroke-width="1" opacity="0.09803921568627451" d="M 52.5 41 L 43.5 51 L 40 53.5 L 41 54.5 L 37 58.5 L 35.5 61 L 34 61.5 Q 36.3 62.8 33.5 64 L 32 64.5 L 32 66.5 Q 22.1 81.1 18 101.5 L 17 112.5 L 16 113.5 L 16 135.5 L 21 158.5 L 27 173.5 Q 37.2 192.8 52.5 207 Q 68.5 222 91.5 230 L 110.5 235 L 135.5 236 L 157.5 232 L 180.5 223 Q 199.4 212.4 213 196.5 Q 227.6 180.1 235 156.5 L 239 137.5 L 239 110.5 L 233 85.5 L 223 66.5 L 223.5 65 L 221 63.5 L 221.5 62 L 219 60.5 L 216 56.5 Q 218.3 55.2 215.5 54 L 210 49.5 L 211 48.5 L 208.5 45 L 211 46.5 L 212.5 49 L 215 50.5 L 217.5 54 Q 219.8 53.3 219 55.5 L 221 59 Q 223.7 57.9 223 60.5 L 227 67 Q 230 65.8 229 69.5 L 239 86.5 L 239 89.5 L 242 94.5 L 242 98.5 L 245 105.5 L 245 111.5 L 247 118.5 L 247 142.5 L 245 149.5 L 245 155.5 L 239 171.5 L 239 174.5 L 222 203 Q 219.3 201.9 220 204.5 Q 202 226 174.5 238 L 151.5 245 L 135.5 246 L 134.5 247 L 121.5 247 L 120.5 246 L 111.5 246 L 100.5 244 L 84.5 239 L 65.5 230 L 51 220 L 49.5 217 L 35 203.5 Q 21.7 187.3 14 165.5 L 9 141.5 L 9 118.5 L 12 102.5 Q 16.5 95 18 84.5 L 34 58 Q 36.7 59.1 36 56.5 L 42.5 49 Q 43.8 51.3 45 48.5 Q 42.2 46.8 46.5 45 L 47.5 46 L 52.5 41 Z "></path><path fill="rgb(123,177,211)" stroke="rgb(123,177,211)" stroke-width="1" opacity="1" d="M 138.5 17 L 142 18.5 L 140.5 19 L 138.5 17 Z "></path><path fill="rgb(123,177,211)" stroke="rgb(123,177,211)" stroke-width="1" opacity="1" d="M 143.5 18 L 152.5 19 L 165.5 24 L 168.5 24 L 182 31.5 Q 179.2 33.2 183.5 35 L 188 37 L 188 39 Q 190.7 37.9 190 40.5 L 202 53.5 L 206 62.5 L 206 64.5 Q 205.7 71.3 209 74.5 L 210 88.5 L 209 90.5 L 212 92.5 L 210.5 93 L 209.5 92 L 198 91.5 Q 200.5 90 197 88.5 L 198 85.5 L 196 80.5 L 196 78.5 L 195 68.5 L 190 56.5 L 184 47.5 L 174.5 38 L 166 34 Q 164.9 31.3 167.5 32 L 187.5 42 L 184.5 38 Q 169.5 26 147 21.5 Q 149.3 20.3 146.5 19 L 142.5 21 L 142.5 20 L 145 19.5 L 143.5 18 Z "></path><path fill="rgb(123,177,211)" stroke="rgb(123,177,211)" stroke-width="1" opacity="1" d="M 114.5 19 L 119 19.5 L 114.5 20 L 114.5 19 Z "></path><path fill="rgb(123,177,211)" stroke="rgb(123,177,211)" stroke-width="1" opacity="1" d="M 133.5 19 L 139 19.5 L 133.5 20 L 133.5 19 Z "></path><path fill="rgb(123,177,211)" stroke="rgb(123,177,211)" stroke-width="1" opacity="1" d="M 119.5 23 L 141.5 24 L 159 29.5 L 157.5 30 L 143.5 27 L 142.5 28 L 130.5 28 L 124.5 31 L 119.5 31 L 103.5 40 L 91 50.5 L 89 53.5 L 83 60.5 L 78 73.5 L 76 75.5 L 76 77.5 L 75 87.5 L 79 106.5 L 84 116.5 L 87 119.5 L 87 122 Q 105.8 119.5 119.5 111 Q 122.8 114.2 130.5 113 Q 140.2 111.2 145 104.5 L 148 97.5 L 147.5 96 Q 158.9 90.9 175.5 91 L 176.5 92 L 179 90.5 L 177 92.5 L 177 98.5 L 175 105.5 L 175 107.5 L 174 111.5 L 167 123 L 160.5 124 L 93.5 124 Q 92 121.5 86.5 123 L 85.5 124 L 68.5 124 L 64 123 L 60 111.5 L 59 102.5 L 60 100.5 L 60 98.5 L 59 93.5 L 61 86.5 L 61 84.5 Q 61.5 77 65 72.5 Q 62.5 71 66 69.5 L 70 60.5 L 79 47 Q 81.7 48.1 81 45.5 L 89.5 37 L 91 37 Q 89.9 34.3 92.5 35 Q 97 29.5 105 27.5 L 102.5 27 L 95.5 29 L 95.5 28 L 119.5 23 Z "></path><path fill="rgb(123,177,211)" stroke="rgb(123,177,211)" stroke-width="1" opacity="1" d="M 92.5 29 L 94 29.5 L 85.5 33 L 85.5 32 L 92.5 29 Z "></path><path fill="rgb(123,177,211)" stroke="rgb(123,177,211)" stroke-width="1" opacity="1" d="M 183.5 32 L 186 33.5 L 184.5 34 L 183.5 32 Z "></path><path fill="rgb(123,177,211)" stroke="rgb(123,177,211)" stroke-width="1" opacity="1" d="M 77.5 36 L 76.5 38 L 72.5 40 L 73.5 38 L 77.5 36 Z "></path><path fill="rgb(123,177,211)" stroke="rgb(123,177,211)" stroke-width="1" opacity="1" d="M 70.5 40 L 68.5 43 L 65.5 45 L 67.5 42 L 70.5 40 Z "></path><path fill="rgb(123,177,211)" stroke="rgb(123,177,211)" stroke-width="1" opacity="1" d="M 63.5 45 L 59.5 50 L 63.5 45 Z "></path><path fill="rgb(123,177,211)" stroke="rgb(123,177,211)" stroke-width="1" opacity="1" d="M 56.5 46 L 51.5 52 L 56.5 46 Z "></path><path fill="rgb(123,177,211)" stroke="rgb(123,177,211)" stroke-width="1" opacity="1" d="M 55.5 52 L 53.5 55 L 55.5 52 Z "></path><path fill="rgb(123,177,211)" stroke="rgb(123,177,211)" stroke-width="1" opacity="1" d="M 49.5 59 L 46.5 63 L 49.5 59 Z "></path><path fill="rgb(123,177,211)" stroke="rgb(123,177,211)" stroke-width="1" opacity="1" d="M 45.5 64 L 43.5 67 L 45.5 64 Z "></path><path fill="rgb(123,177,211)" stroke="rgb(123,177,211)" stroke-width="1" opacity="1" d="M 42.5 68 L 41.5 70 L 42.5 68 Z "></path><path fill="rgb(123,177,211)" stroke="rgb(123,177,211)" stroke-width="1" opacity="1" d="M 40.5 71 L 39.5 73 L 40.5 71 Z "></path><path fill="rgb(123,177,211)" stroke="rgb(123,177,211)" stroke-width="1" opacity="1" d="M 36.5 78 L 36 79.5 L 34.5 83 L 34 81.5 L 36.5 78 Z "></path><path fill="rgb(123,177,211)" stroke="rgb(123,177,211)" stroke-width="1" opacity="1" d="M 30.5 87 L 32 89.5 L 28.5 98 L 28 94.5 L 29 90 Q 31.7 91.1 31 88.5 L 30.5 87 Z "></path><path fill="rgb(123,177,211)" stroke="rgb(123,177,211)" stroke-width="1" opacity="1" d="M 180.5 90 L 192 90.5 L 180.5 91 L 180.5 90 Z "></path><path fill="rgb(28,101,144)" stroke="rgb(28,101,144)" stroke-width="1" opacity="0.9882352941176471" d="M 121.5 13 L 134.5 13 L 135.5 14 L 149.5 15 L 176.5 24 Q 197.3 34.7 212 51.5 L 227 73.5 L 232 85.5 L 238 108.5 L 239 128.5 L 238 129.5 L 238 139.5 L 236.5 146 L 236 139.5 L 237 138.5 L 237 124 L 201 123.5 L 204 123 L 206 112.5 L 205 108.5 Q 207.8 106.7 206 100.5 L 204 94.5 L 212.5 94 L 232.5 99 L 233 97.5 Q 224 63 200.5 43 Q 182.6 26.9 156.5 19 L 141.5 16 L 114.5 16 L 99.5 19 L 85.5 24 Q 66.8 31.8 54 45.5 L 55 46.5 L 49 52.5 Q 36.1 67.1 29 87.5 L 25 104.5 L 25 122.5 L 26 122.5 Q 26.8 94.8 39.5 79 L 40 82.5 L 39 84.5 L 39 86.5 L 38 90.5 L 38 92.5 L 38 110.5 Q 41.1 115.1 40 123 L 42 123.5 L 18 124 L 19 143.5 L 18 143.5 Q 19.5 138 17 136.5 L 17 111.5 L 20 95.5 L 30 70.5 Q 38.8 54.8 51.5 43 Q 65.2 30.2 83.5 22 L 105.5 15 L 120.5 14 L 121.5 13 Z "></path><path fill="rgb(28,101,144)" stroke="rgb(28,101,144)" stroke-width="1" opacity="0.9882352941176471" d="M 19.5 146 L 20 148.5 L 19 148.5 L 19.5 146 Z "></path><path fill="rgb(0,0,0)" stroke="rgb(0,0,0)" stroke-width="1" opacity="0" d="M 0 0 L 256 0 L 256 256 L 0 256 L 0 0 Z M 115 13 L 98 16 L 82 22 Q 65 29 53 41 L 44 50 L 43 49 L 40 53 L 43 52 L 36 57 Q 37 59 34 58 L 18 85 Q 17 95 12 103 L 9 119 L 9 142 L 14 166 Q 22 187 35 204 L 50 217 L 51 220 L 66 230 L 85 239 L 101 244 L 112 246 L 121 246 L 122 247 L 135 247 L 136 246 L 152 245 L 175 238 Q 202 226 220 205 Q 219 202 222 203 L 239 175 L 239 172 L 245 156 L 245 150 L 247 143 L 247 119 L 245 112 L 245 106 L 242 99 L 242 95 L 239 90 L 239 87 L 229 70 Q 230 66 227 67 L 223 61 Q 224 58 221 59 L 219 56 Q 220 53 218 54 L 215 51 L 213 49 L 211 49 Q 193 29 167 19 L 150 14 L 142 14 L 141 13 L 115 13 Z M 209 45 L 211 48 L 211 47 L 209 45 Z "></path><path fill="rgb(0,0,0)" stroke="rgb(0,0,0)" stroke-width="1" opacity="0" d="M 215.5 54 L 216.5 56 L 215.5 54 Z "></path><path fill="rgb(72,145,191)" stroke="rgb(72,145,191)" stroke-width="1" opacity="1" d="M 114.5 16 L 117 16.5 L 114.5 17 L 114.5 16 Z "></path><path fill="rgb(72,145,191)" stroke="rgb(72,145,191)" stroke-width="1" opacity="1" d="M 139.5 16 L 142 16.5 L 139.5 17 L 139.5 16 Z "></path><path fill="rgb(72,145,191)" stroke="rgb(72,145,191)" stroke-width="1" opacity="1" d="M 81.5 26 L 82.5 28 L 81.5 26 Z "></path><path fill="rgb(72,145,191)" stroke="rgb(72,145,191)" stroke-width="1" opacity="1" d="M 79.5 27 Q 82.5 28.5 79.5 30 Q 61.3 38.3 49.5 53 L 51 50.5 L 50 49.5 L 60.5 39 L 79.5 27 Z "></path><path fill="rgb(72,145,191)" stroke="rgb(72,145,191)" stroke-width="1" opacity="1" d="M 190.5 35 L 191.5 37 L 190.5 35 Z "></path><path fill="rgb(72,145,191)" stroke="rgb(72,145,191)" stroke-width="1" opacity="1" d="M 194.5 38 L 195.5 40 L 194.5 38 Z "></path><path fill="rgb(72,145,191)" stroke="rgb(72,145,191)" stroke-width="1" opacity="1" d="M 200.5 43 L 208.5 52 L 200.5 43 Z "></path><path fill="rgb(72,145,191)" stroke="rgb(72,145,191)" stroke-width="1" opacity="1" d="M 66.5 46 Q 69.1 45.3 68 48 Q 65.3 46.9 66 49.5 L 62 56.5 L 57 75.5 L 57 77.5 L 56 82.5 L 56 84.5 L 57 103.5 L 64 124 L 42.5 124 L 40 123 Q 41.1 115.1 38 110.5 L 38 92.5 L 39 89.5 L 40 85.5 L 39 83.5 L 40 79.5 L 37 81.5 L 29.5 100 L 29 97.5 Q 38.2 68.2 59.5 51 L 66.5 46 Z "></path><path fill="rgb(72,145,191)" stroke="rgb(72,145,191)" stroke-width="1" opacity="1" d="M 47.5 55 L 45.5 58 L 47.5 55 Z "></path><path fill="rgb(72,145,191)" stroke="rgb(72,145,191)" stroke-width="1" opacity="1" d="M 211.5 55 L 213.5 58 L 211.5 55 Z "></path><path fill="rgb(72,145,191)" stroke="rgb(72,145,191)" stroke-width="1" opacity="1" d="M 43.5 60 L 42.5 62 L 43.5 60 Z "></path><path fill="rgb(72,145,191)" stroke="rgb(72,145,191)" stroke-width="1" opacity="1" d="M 41.5 63 L 40.5 65 L 41.5 63 Z "></path><path fill="rgb(72,145,191)" stroke="rgb(72,145,191)" stroke-width="1" opacity="1" d="M 220.5 68 L 221.5 70 L 220.5 68 Z "></path><path fill="rgb(72,145,191)" stroke="rgb(72,145,191)" stroke-width="1" opacity="1" d="M 221.5 74 Q 223.3 77.1 225 75.5 L 224 77.5 L 226 77.5 L 225.5 79 Q 227.8 78.3 227 80.5 L 233 98.5 L 231.5 98 L 218 95.5 L 222 94.5 L 220 93.5 L 222 89.5 L 221 87.5 L 222 85.5 L 222 81.5 Q 222.5 75.5 221.5 74 Z "></path><path fill="rgb(72,145,191)" stroke="rgb(72,145,191)" stroke-width="1" opacity="1" d="M 176.5 91 L 178.5 91 L 195.5 91 L 196.5 92 L 205.5 92 L 212 93.5 L 204 94.5 Q 206.9 99.1 206 107.5 L 205 111.5 L 205 113.5 L 204 123 L 200.5 124 L 166.5 124 L 167 122.5 L 176 106.5 L 175 104.5 L 177 98.5 L 177 92.5 L 176.5 91 Z "></path><path fill="rgb(72,145,191)" stroke="rgb(72,145,191)" stroke-width="1" opacity="1" d="M 213.5 94 L 217 94.5 L 213.5 95 L 213.5 94 Z "></path><path fill="rgb(72,145,191)" stroke="rgb(72,145,191)" stroke-width="1" opacity="1" d="M 26.5 98 L 27 100.5 L 26 100.5 L 26.5 98 Z "></path><path fill="rgb(72,145,191)" stroke="rgb(72,145,191)" stroke-width="1" opacity="1" d="M 28.5 101 L 29 103.5 L 28 103.5 L 28.5 101 Z "></path><path fill="rgb(72,145,191)" stroke="rgb(72,145,191)" stroke-width="1" opacity="1" d="M 25.5 104 L 27 115.5 L 25.5 123 L 25 113.5 L 26 110.5 Q 23.4 108.9 25.5 104 Z "></path><path fill="rgb(72,145,191)" stroke="rgb(72,145,191)" stroke-width="1" opacity="1" d="M 27.5 105 L 28 108.5 L 27 108.5 L 27.5 105 Z "></path><path fill="rgb(245,215,13)" stroke="rgb(245,215,13)" stroke-width="1" opacity="1" d="M 46.5 125 Q 54.4 124.1 58 127.5 L 61 137.5 Q 66 141.8 67 149 L 71 151.5 L 75 158 L 78.5 159 Q 83.5 166 92.5 169 L 109.5 175 L 121.5 177 L 122.5 176 L 131.5 176 L 135.5 177 L 145.5 175 L 161.5 169 L 171.5 164 L 175 160.5 Q 174.3 158.3 176.5 159 L 181 157 L 185 149 L 189 146.5 L 189 143.5 Q 194.2 138.7 196 130.5 Q 193.5 129 197 127.5 L 198.5 125 L 210 125.5 L 207 126 L 204 146.5 L 199 158.5 L 194 164.5 L 194 167 L 192 167 L 192 169 Q 189.3 167.9 190 170.5 L 177.5 184 Q 168.5 191.5 156.5 196 L 154.5 196 L 145.5 199 L 124.5 201 L 123.5 200 L 109.5 199 L 96.5 194 L 93.5 194 L 76.5 183 L 70 176.5 L 54 154.5 L 49 137.5 Q 49.8 129.8 48 126 L 46.5 125 Z "></path><path fill="rgb(230,201,7)" stroke="rgb(230,201,7)" stroke-width="1" opacity="1" d="M 200.5 124 L 204 124.5 L 200.5 125 L 200.5 124 Z "></path><path fill="rgb(230,201,7)" stroke="rgb(230,201,7)" stroke-width="1" opacity="1" d="M 39.5 125 Q 45.6 124.3 48 126 Q 49.8 129.8 49 137.5 L 55 156.5 Q 63.8 171.7 76.5 183 L 93.5 194 L 96.5 194 L 109.5 199 L 130.5 201 L 131.5 200 L 145.5 199 L 155.5 195 L 157.5 195 Q 176.5 188 188 173.5 L 190 169 L 194 167 L 194 164.5 L 199 158.5 L 204 146.5 L 207 126 L 215.5 125 L 215.5 126 L 214 126.5 L 214 133.5 L 211 148.5 L 203 165.5 L 188.5 184 L 185.5 186 L 173.5 196 L 153.5 205 L 138.5 208 L 116.5 208 L 95.5 203 Q 89.4 197.7 81 196 Q 82.3 193 78.5 194 L 62 178.5 L 60 175.5 L 55 168 Q 52 169.3 53 165.5 L 45 151.5 L 42 139.5 L 41 126 L 39.5 125 Z "></path><path fill="rgb(253,228,58)" stroke="rgb(253,228,58)" stroke-width="1" opacity="1" d="M 47.5 124 L 200 124.5 L 197 126.5 L 195 129.5 L 195 131.5 L 195 134.5 L 186.5 149 Q 184.3 148.3 185 150.5 L 181 157 L 175 159 L 171.5 164 L 145.5 175 L 132.5 177 L 131.5 176 L 122.5 176 L 118.5 177 L 92.5 169 Q 83.5 166 78.5 159 L 75 158 L 68.5 149 Q 65.9 149.8 67 146.5 L 62 139.5 Q 61 131 56.5 126 L 47.5 125 L 47.5 124 Z "></path><path fill="rgb(43,61,42)" stroke="rgb(43,61,42)" stroke-width="1" opacity="0.5019607843137255" d="M 115.5 13 L 121 13.5 L 115.5 14 L 115.5 13 Z "></path><path fill="rgb(43,61,42)" stroke="rgb(43,61,42)" stroke-width="1" opacity="0.5019607843137255" d="M 135.5 13 L 141 13.5 L 135.5 14 L 135.5 13 Z "></path><path fill="rgb(43,61,42)" stroke="rgb(43,61,42)" stroke-width="1" opacity="0.5019607843137255" d="M 108.5 14 L 111 14.5 L 108.5 15 L 108.5 14 Z "></path><path fill="rgb(43,61,42)" stroke="rgb(43,61,42)" stroke-width="1" opacity="0.5019607843137255" d="M 144.5 14 L 147 14.5 L 144.5 15 L 144.5 14 Z "></path><path fill="rgb(43,61,42)" stroke="rgb(43,61,42)" stroke-width="1" opacity="0.5019607843137255" d="M 89.5 19 L 91 19.5 L 87.5 21 L 87.5 20 L 89.5 19 Z "></path><path fill="rgb(43,61,42)" stroke="rgb(43,61,42)" stroke-width="1" opacity="0.5019607843137255" d="M 167.5 20 L 171 21.5 L 169.5 22 L 167.5 20 Z "></path><path fill="rgb(43,61,42)" stroke="rgb(43,61,42)" stroke-width="1" opacity="0.5019607843137255" d="M 72.5 27 L 71.5 29 L 72.5 27 Z "></path><path fill="rgb(43,61,42)" stroke="rgb(43,61,42)" stroke-width="1" opacity="0.5019607843137255" d="M 184.5 28 L 185.5 30 L 184.5 28 Z "></path><path fill="rgb(43,61,42)" stroke="rgb(43,61,42)" stroke-width="1" opacity="0.5019607843137255" d="M 67.5 30 L 66.5 32 L 67.5 30 Z "></path><path fill="rgb(43,61,42)" stroke="rgb(43,61,42)" stroke-width="1" opacity="0.5019607843137255" d="M 189.5 31 L 190.5 33 L 189.5 31 Z "></path><path fill="rgb(43,61,42)" stroke="rgb(43,61,42)" stroke-width="1" opacity="0.5019607843137255" d="M 64.5 32 L 63.5 34 L 64.5 32 Z "></path><path fill="rgb(43,61,42)" stroke="rgb(43,61,42)" stroke-width="1" opacity="0.5019607843137255" d="M 61.5 34 L 59.5 37 L 61.5 34 Z "></path><path fill="rgb(43,61,42)" stroke="rgb(43,61,42)" stroke-width="1" opacity="0.5019607843137255" d="M 193.5 34 L 194.5 36 L 193.5 34 Z "></path><path fill="rgb(43,61,42)" stroke="rgb(43,61,42)" stroke-width="1" opacity="0.5019607843137255" d="M 196.5 36 L 199.5 40 L 196.5 36 Z "></path><path fill="rgb(43,61,42)" stroke="rgb(43,61,42)" stroke-width="1" opacity="0.5019607843137255" d="M 56.5 38 L 52.5 43 L 56.5 38 Z "></path><path fill="rgb(43,61,42)" stroke="rgb(43,61,42)" stroke-width="1" opacity="0.5019607843137255" d="M 204.5 43 L 209.5 49 L 204.5 43 Z "></path><path fill="rgb(43,61,42)" stroke="rgb(43,61,42)" stroke-width="1" opacity="0.5019607843137255" d="M 46.5 48 L 41.5 54 L 46.5 48 Z "></path><path fill="rgb(43,61,42)" stroke="rgb(43,61,42)" stroke-width="1" opacity="0.5019607843137255" d="M 212.5 52 L 215.5 56 L 212.5 52 Z "></path><path fill="rgb(43,61,42)" stroke="rgb(43,61,42)" stroke-width="1" opacity="0.5019607843137255" d="M 39.5 56 L 37.5 59 L 39.5 56 Z "></path><path fill="rgb(43,61,42)" stroke="rgb(43,61,42)" stroke-width="1" opacity="0.5019607843137255" d="M 216.5 57 L 218.5 60 L 216.5 57 Z "></path><path fill="rgb(43,61,42)" stroke="rgb(43,61,42)" stroke-width="1" opacity="0.5019607843137255" d="M 36.5 60 L 35.5 62 L 36.5 60 Z "></path><path fill="rgb(43,61,42)" stroke="rgb(43,61,42)" stroke-width="1" opacity="0.5019607843137255" d="M 219.5 61 L 224 67.5 L 222 66.5 L 219.5 61 Z "></path><path fill="rgb(43,61,42)" stroke="rgb(43,61,42)" stroke-width="1" opacity="0.5019607843137255" d="M 34.5 63 L 34 64.5 L 32.5 67 L 33 65.5 L 34.5 63 Z "></path><path fill="rgb(43,61,42)" stroke="rgb(43,61,42)" stroke-width="1" opacity="0.5019607843137255" d="M 227.5 74 L 234 90.5 L 233 90.5 L 227.5 74 Z "></path><path fill="rgb(43,61,42)" stroke="rgb(43,61,42)" stroke-width="1" opacity="0.5019607843137255" d="M 26.5 77 L 27 78.5 L 24.5 83 L 24 81.5 L 26.5 77 Z "></path><path fill="rgb(43,61,42)" stroke="rgb(43,61,42)" stroke-width="1" opacity="0.5019607843137255" d="M 23.5 84 L 24 85.5 L 22.5 89 L 22 86.5 L 23.5 84 Z "></path><path fill="rgb(43,61,42)" stroke="rgb(43,61,42)" stroke-width="1" opacity="0.5019607843137255" d="M 18.5 101 L 19 103.5 L 18 103.5 L 18.5 101 Z "></path><path fill="rgb(43,61,42)" stroke="rgb(43,61,42)" stroke-width="1" opacity="0.5019607843137255" d="M 237.5 104 L 238 107.5 L 237 107.5 L 237.5 104 Z "></path><path fill="rgb(43,61,42)" stroke="rgb(43,61,42)" stroke-width="1" opacity="0.5019607843137255" d="M 17.5 106 L 18 110.5 L 17 110.5 L 17.5 106 Z "></path><path fill="rgb(43,61,42)" stroke="rgb(43,61,42)" stroke-width="1" opacity="0.5019607843137255" d="M 238.5 110 L 239 119.5 L 238 119.5 L 238.5 110 Z "></path><path fill="rgb(43,61,42)" stroke="rgb(43,61,42)" stroke-width="1" opacity="0.5019607843137255" d="M 16.5 113 L 17 135.5 L 16 135.5 L 16.5 113 Z "></path><path fill="rgb(43,61,42)" stroke="rgb(43,61,42)" stroke-width="1" opacity="0.5019607843137255" d="M 238.5 129 L 239 137.5 L 238 137.5 L 238.5 129 Z "></path><path fill="rgb(43,61,42)" stroke="rgb(43,61,42)" stroke-width="1" opacity="0.5019607843137255" d="M 17.5 137 L 18 141.5 L 17 141.5 L 17.5 137 Z "></path><path fill="rgb(43,61,42)" stroke="rgb(43,61,42)" stroke-width="1" opacity="0.5019607843137255" d="M 237.5 140 L 238 143.5 L 237 143.5 L 237.5 140 Z "></path><path fill="rgb(43,61,42)" stroke="rgb(43,61,42)" stroke-width="1" opacity="0.5019607843137255" d="M 18.5 144 L 19 146.5 L 18 146.5 L 18.5 144 Z "></path><path fill="rgb(43,61,42)" stroke="rgb(43,61,42)" stroke-width="1" opacity="0.5019607843137255" d="M 236.5 146 L 237 148.5 L 236 148.5 L 236.5 146 Z "></path><path fill="rgb(43,61,42)" stroke="rgb(43,61,42)" stroke-width="1" opacity="0.5019607843137255" d="M 235.5 150 L 236 152.5 L 235 152.5 L 235.5 150 Z "></path><path fill="rgb(43,61,42)" stroke="rgb(43,61,42)" stroke-width="1" opacity="0.5019607843137255" d="M 234.5 154 L 235 156.5 L 228.5 172 L 228 170.5 L 234.5 154 Z "></path><path fill="rgb(43,61,42)" stroke="rgb(43,61,42)" stroke-width="1" opacity="0.5019607843137255" d="M 21.5 156 L 27 170.5 L 26 170.5 L 21 158.5 L 21.5 156 Z "></path><path fill="rgb(43,61,42)" stroke="rgb(43,61,42)" stroke-width="1" opacity="0.5019607843137255" d="M 27.5 172 L 29 174.5 L 27 173.5 L 27.5 172 Z "></path><path fill="rgb(43,61,42)" stroke="rgb(43,61,42)" stroke-width="1" opacity="0.5019607843137255" d="M 225.5 177 L 225 178.5 L 220.5 186 L 221 184.5 L 225.5 177 Z "></path><path fill="rgb(43,61,42)" stroke="rgb(43,61,42)" stroke-width="1" opacity="0.5019607843137255" d="M 31.5 180 L 36 186.5 L 34 185.5 L 31.5 180 Z "></path><path fill="rgb(43,61,42)" stroke="rgb(43,61,42)" stroke-width="1" opacity="0.5019607843137255" d="M 219.5 187 L 217.5 190 L 219.5 187 Z "></path><path fill="rgb(43,61,42)" stroke="rgb(43,61,42)" stroke-width="1" opacity="0.5019607843137255" d="M 37.5 189 L 38.5 191 L 37.5 189 Z "></path><path fill="rgb(43,61,42)" stroke="rgb(43,61,42)" stroke-width="1" opacity="0.5019607843137255" d="M 216.5 191 L 214.5 194 L 216.5 191 Z "></path><path fill="rgb(43,61,42)" stroke="rgb(43,61,42)" stroke-width="1" opacity="0.5019607843137255" d="M 40.5 193 L 43.5 197 L 40.5 193 Z "></path><path fill="rgb(43,61,42)" stroke="rgb(43,61,42)" stroke-width="1" opacity="0.5019607843137255" d="M 212.5 196 L 200.5 209 L 212.5 196 Z "></path><path fill="rgb(43,61,42)" stroke="rgb(43,61,42)" stroke-width="1" opacity="0.5019607843137255" d="M 44.5 198 L 52.5 207 L 44.5 198 Z "></path><path fill="rgb(43,61,42)" stroke="rgb(43,61,42)" stroke-width="1" opacity="0.5019607843137255" d="M 55.5 208 L 58.5 212 L 55.5 208 Z "></path><path fill="rgb(43,61,42)" stroke="rgb(43,61,42)" stroke-width="1" opacity="0.5019607843137255" d="M 197.5 210 L 195.5 213 L 197.5 210 Z "></path><path fill="rgb(43,61,42)" stroke="rgb(43,61,42)" stroke-width="1" opacity="0.5019607843137255" d="M 61.5 213 L 62.5 215 L 61.5 213 Z "></path><path fill="rgb(43,61,42)" stroke="rgb(43,61,42)" stroke-width="1" opacity="0.5019607843137255" d="M 193.5 213 L 191.5 216 L 193.5 213 Z "></path><path fill="rgb(43,61,42)" stroke="rgb(43,61,42)" stroke-width="1" opacity="0.5019607843137255" d="M 64.5 215 L 65.5 217 L 64.5 215 Z "></path><path fill="rgb(43,61,42)" stroke="rgb(43,61,42)" stroke-width="1" opacity="0.5019607843137255" d="M 189.5 216 L 188.5 218 L 189.5 216 Z "></path><path fill="rgb(43,61,42)" stroke="rgb(43,61,42)" stroke-width="1" opacity="0.5019607843137255" d="M 67.5 217 L 68.5 219 L 67.5 217 Z "></path><path fill="rgb(43,61,42)" stroke="rgb(43,61,42)" stroke-width="1" opacity="0.5019607843137255" d="M 186.5 218 L 185.5 220 L 186.5 218 Z "></path><path fill="rgb(43,61,42)" stroke="rgb(43,61,42)" stroke-width="1" opacity="0.5019607843137255" d="M 70.5 219 L 74 221.5 L 72.5 221 L 70.5 219 Z "></path><path fill="rgb(43,61,42)" stroke="rgb(43,61,42)" stroke-width="1" opacity="0.5019607843137255" d="M 181.5 221 L 180.5 223 L 179 222.5 L 181.5 221 Z "></path><path fill="rgb(43,61,42)" stroke="rgb(43,61,42)" stroke-width="1" opacity="0.5019607843137255" d="M 75.5 222 L 83 225.5 L 81.5 226 L 75.5 223 L 75.5 222 Z "></path><path fill="rgb(43,61,42)" stroke="rgb(43,61,42)" stroke-width="1" opacity="0.5019607843137255" d="M 97.5 231 L 100 231.5 L 97.5 232 L 97.5 231 Z "></path><path fill="rgb(43,61,42)" stroke="rgb(43,61,42)" stroke-width="1" opacity="0.5019607843137255" d="M 155.5 231 L 158 231.5 L 155.5 232 L 155.5 231 Z "></path><path fill="rgb(43,61,42)" stroke="rgb(43,61,42)" stroke-width="1" opacity="0.5019607843137255" d="M 101.5 232 L 104 232.5 L 101.5 233 L 101.5 232 Z "></path><path fill="rgb(43,61,42)" stroke="rgb(43,61,42)" stroke-width="1" opacity="0.5019607843137255" d="M 151.5 232 L 154 232.5 L 151.5 233 L 151.5 232 Z "></path><path fill="rgb(43,61,42)" stroke="rgb(43,61,42)" stroke-width="1" opacity="0.5019607843137255" d="M 105.5 233 L 109 233.5 L 105.5 234 L 105.5 233 Z "></path><path fill="rgb(43,61,42)" stroke="rgb(43,61,42)" stroke-width="1" opacity="0.5019607843137255" d="M 146.5 233 L 150 233.5 L 146.5 234 L 146.5 233 Z "></path><path fill="rgb(43,61,42)" stroke="rgb(43,61,42)" stroke-width="1" opacity="0.5019607843137255" d="M 110.5 234 L 117 234.5 L 110.5 235 L 110.5 234 Z "></path><path fill="rgb(43,61,42)" stroke="rgb(43,61,42)" stroke-width="1" opacity="0.5019607843137255" d="M 139.5 234 L 145 234.5 L 139.5 235 L 139.5 234 Z "></path><path fill="rgb(43,61,42)" stroke="rgb(43,61,42)" stroke-width="1" opacity="0.5019607843137255" d="M 120.5 235 L 136 235.5 L 120.5 236 L 120.5 235 Z "></path><path fill="rgb(219,191,1)" stroke="rgb(219,191,1)" stroke-width="1" opacity="1" d="M 41.5 124 L 47 124.5 L 41.5 125 L 41.5 124 Z "></path><path fill="rgb(219,191,1)" stroke="rgb(219,191,1)" stroke-width="1" opacity="1" d="M 204.5 124 L 213 124.5 L 204.5 125 L 204.5 124 Z "></path><path fill="rgb(219,191,1)" stroke="rgb(219,191,1)" stroke-width="1" opacity="1" d="M 30.5 125 Q 38 124 41 126 L 42 139.5 L 45 151.5 L 53 165.5 L 53 168 Q 55.7 166.9 55 169.5 L 60 177 Q 62.7 175.9 62 178.5 L 73.5 190 L 78.5 194 L 81 194 Q 79.9 196.7 82.5 196 L 95.5 203 L 109.5 207 Q 115 205.5 116.5 208 L 138.5 208 Q 140.3 205.2 146.5 207 L 164.5 201 L 187 186 Q 185.9 183.3 188.5 184 Q 201.3 171.3 209 153.5 Q 214.1 141.8 214 126 Q 217.3 123.9 225.5 125 L 225.5 126 Q 222.5 125.5 224 132.5 L 222 140.5 L 222 147.5 Q 219 150.5 219 156.5 Q 215.5 160 215 166.5 L 204 184 Q 201.3 182.9 202 185.5 L 196 193 L 177.5 207 L 156.5 217 L 154.5 217 L 141.5 220 L 123.5 221 L 122.5 220 L 108.5 219 L 91.5 214 L 74.5 205 L 55 187.5 L 46 176.5 L 36 155.5 L 32 138.5 L 32 126 L 30.5 125 Z "></path><path fill="rgb(183,161,7)" stroke="rgb(183,161,7)" stroke-width="1" opacity="0.996078431372549" d="M 18 124 L 41 124.5 L 30 125.5 L 32 126 L 32 138.5 L 34 144.5 L 34 149.5 L 38 160.5 L 46 176.5 L 65.5 198 L 74.5 205 L 91.5 214 L 113.5 220 L 132.5 221 L 133.5 220 L 146.5 219 L 155.5 216 L 157.5 216 L 177.5 207 L 196 193 L 202 184 Q 204.7 185.1 204 182.5 L 211 173.5 L 219 156.5 Q 219 150.5 222 147.5 L 224 126 L 226 125.5 L 213 124.5 L 237 124 L 237 138.5 L 234 152.5 L 235 153.5 L 233 157.5 Q 223.1 191.1 198.5 210 Q 182.1 224.1 158.5 231 L 138.5 235 L 117.5 235 L 96.5 231 L 74.5 222 Q 56.7 212.3 44 197.5 Q 31.3 183.7 24 164.5 L 19 144.5 L 18 124 Z "></path></svg>